<svg width="33" height="33" viewBox="0 0 33 33" fill="none" xmlns="http://www.w3.org/2000/svg">
<g clip-path="url(#clip0_970_38)">
<path d="M6.21411 12.4893H30.9155V30.747H6.21411V12.4893Z" fill="white"/>
<path d="M0.967407 16.6809V32.1704H31.9464V1.19141H0.967407V16.6809ZM25.9315 15.4417C26.6735 15.6139 27.3478 16.002 27.8695 16.557C28.1567 16.856 28.4064 17.1889 28.613 17.5483C28.613 17.588 27.2747 18.4925 26.4594 18.9981C26.4296 19.0179 26.3107 18.8891 26.1793 18.6933C26.0305 18.4364 25.819 18.2215 25.5646 18.0685C25.3102 17.9155 25.0212 17.8295 24.7246 17.8184C23.7853 17.754 23.1806 18.2472 23.1855 19.0576C23.1778 19.2594 23.224 19.4596 23.3193 19.6375C23.525 20.0663 23.9092 20.3215 25.1137 20.842C27.3317 21.7961 28.2809 22.4256 28.8708 23.3203C29.53 24.3116 29.6762 25.9126 29.2301 27.0973C28.7345 28.386 27.5201 29.2608 25.8026 29.5508C25.0182 29.6406 24.2256 29.6323 23.4433 29.526C22.2442 29.3284 21.1396 28.7526 20.2908 27.8829C20.0058 27.5681 19.4507 26.7478 19.4854 26.6883C19.5759 26.6212 19.6711 26.5607 19.7704 26.5074L20.9179 25.873L21.8076 25.3575L21.9934 25.6326C22.3071 26.0813 22.7063 26.4637 23.1682 26.7577C24.1595 27.2782 25.5127 27.2063 26.1818 26.6041C26.4065 26.3834 26.5466 26.0909 26.5779 25.7775C26.6091 25.4642 26.5295 25.1498 26.3528 24.8891C26.105 24.5446 25.6093 24.2546 24.2239 23.6499C22.6254 22.9609 21.9364 22.5347 21.307 21.8556C20.914 21.4075 20.6238 20.8788 20.4569 20.3067C20.3324 19.653 20.314 18.9835 20.4024 18.324C20.732 16.78 21.8894 15.702 23.5796 15.3822C24.3623 15.2854 25.1552 15.3071 25.9315 15.4467V15.4417ZM18.6601 16.7404V18.0093H14.6378V29.4665H11.7853V18.0068H7.75304V16.7676C7.74048 16.3403 7.75041 15.9126 7.78278 15.4863C7.80261 15.464 10.2611 15.464 13.2351 15.464H18.6452L18.6601 16.7404Z" fill="#007ACC"/>
</g>
<defs>
<clipPath id="clip0_970_38">
<rect width="31.7225" height="31.7225" fill="white" transform="translate(0.595703 0.84082)"/>
</clipPath>
</defs>
</svg>
