<svg width="37" height="36" viewBox="0 0 37 36" fill="none" xmlns="http://www.w3.org/2000/svg">
<path d="M0.696289 0H36.5713V35.875H0.696289V0Z" fill="#F5DE19"/>
<path d="M24.7953 28.0263C25.1009 28.6472 25.5758 29.1691 26.1652 29.5318C26.7546 29.8945 27.4345 30.0833 28.1265 30.0763C29.5231 30.0763 30.4161 29.3781 30.4161 28.4107C30.4161 27.2576 29.4987 26.845 27.9612 26.1724L27.1182 25.8111C24.6838 24.7745 23.0694 23.4766 23.0694 20.7322C23.0694 18.2043 24.9913 16.2786 28.0061 16.2786C28.982 16.2081 29.9571 16.4265 30.8097 16.9066C31.6623 17.3867 32.3547 18.1071 32.8005 18.9782L30.165 20.663C29.9933 20.2311 29.6944 19.8616 29.3079 19.6035C28.9215 19.3454 28.4656 19.2109 28.0009 19.2178C27.7982 19.1975 27.5935 19.2196 27.3997 19.2828C27.206 19.346 27.0276 19.4489 26.8759 19.5849C26.7241 19.7208 26.6023 19.8869 26.5183 20.0725C26.4343 20.2582 26.3899 20.4593 26.3879 20.663C26.3879 21.6739 27.0144 22.0839 28.4609 22.713L29.304 23.0743C32.1689 24.303 33.7884 25.5548 33.7884 28.3697C33.7884 31.405 31.4039 33.0681 28.2021 33.0681C26.9546 33.1476 25.7107 32.8643 24.6205 32.2525C23.5304 31.6407 22.6406 30.7265 22.0585 29.6202L24.7953 28.0263ZM12.886 28.3185C13.4152 29.2576 13.8969 30.052 15.0552 30.052C16.1622 30.052 16.8618 29.6189 16.8618 27.9341V16.4708H20.2327V27.9789C20.2327 31.4691 18.1827 33.0578 15.1987 33.0578C14.1439 33.1155 13.0964 32.8526 12.1938 32.3038C11.2912 31.7549 10.5758 30.9458 10.1416 29.9828L12.886 28.3185Z" fill="black"/>
</svg>
