<svg width="37" height="37" viewBox="0 0 37 37" fill="none" xmlns="http://www.w3.org/2000/svg">
<path d="M36.0033 15.225H34.5731V15.1514H18.5935V22.2534H28.6278C27.1639 26.3877 23.2302 29.3554 18.5935 29.3554C12.7103 29.3554 7.94042 24.5855 7.94042 18.7024C7.94042 12.8192 12.7103 8.04931 18.5935 8.04931C21.3091 8.04931 23.7798 9.07378 25.6609 10.7472L30.6829 5.72516C27.5119 2.76983 23.2702 0.947266 18.5935 0.947266C8.78823 0.947266 0.838379 8.89711 0.838379 18.7024C0.838379 28.5076 8.78823 36.4575 18.5935 36.4575C28.3987 36.4575 36.3486 28.5076 36.3486 18.7024C36.3486 17.5119 36.2261 16.3498 36.0033 15.225Z" fill="#FFC107"/>
<path d="M2.88562 10.4383L8.71906 14.7164C10.2975 10.8085 14.1202 8.04931 18.5936 8.04931C21.3092 8.04931 23.7798 9.07378 25.661 10.7472L30.683 5.72516C27.512 2.76983 23.2703 0.947266 18.5936 0.947266C11.7738 0.947266 5.8596 4.79746 2.88562 10.4383Z" fill="#FF3D00"/>
<path d="M18.5935 36.4569C23.1796 36.4569 27.3467 34.7018 30.4974 31.8477L25.0022 27.1976C23.1597 28.5989 20.9083 29.3567 18.5935 29.3549C13.9754 29.3549 10.0542 26.4102 8.57693 22.3008L2.78699 26.7617C5.72546 32.5117 11.6929 36.4569 18.5935 36.4569Z" fill="#4CAF50"/>
<path d="M36.0033 15.2241H34.5731V15.1504H18.5935V22.2524H28.6278C27.9275 24.2201 26.6662 25.9394 24.9995 27.1981L25.0022 27.1963L30.4974 31.8464C30.1086 32.1997 36.3486 27.579 36.3486 18.7014C36.3486 17.5109 36.2261 16.3489 36.0033 15.2241Z" fill="#1976D2"/>
</svg>
